<?xml version="1.0" encoding="UTF-8"?>
<svg xmlns="http://www.w3.org/2000/svg" width="200" height="32" viewBox="0 0 200 32">
  <defs>
    <linearGradient id="a" x1="48.40541%" x2="48.40541%" y1="28.04959%" y2="100%">
      <stop offset="0%" stop-color="#00DBD7"/>
      <stop offset="100%" stop-color="#00B3AD"/>
    </linearGradient>
  </defs>
  <g fill="none" fill-rule="nonzero">
    <rect width="199" height="31" x=".5" y=".5" fill="url(#a)" stroke="#02B4AE" rx="2"/>
    <path fill="#1E222B" d="M44.1472 20.13h2.17463c2.12284 0 3.88325-1.343 3.88325-4.131 0-2.822-1.74315-4.182-3.866-4.182h-2.19187v8.313zM46.39087 22h-4.31472V9.947h4.33198c3.33097 0 5.95432 2.176 5.95432 6.052 0 3.859-2.65787 6.001-5.97158 6.001zm8.91299-5.049h4.12487c-.03452-.969-.69035-1.836-2.07107-1.836-1.2599 0-1.98477.952-2.0538 1.836zm4.34924 2.159l1.69137.527c-.44873 1.445-1.77767 2.618-3.79696 2.618-2.27817 0-4.29746-1.632-4.29746-4.437 0-2.618 1.96751-4.352 4.09036-4.352 2.58883 0 4.10761 1.683 4.10761 4.301 0 .323-.03452.595-.05178.629h-6.14416c.05178 1.258 1.0528 2.159 2.29543 2.159 1.20812 0 1.82944-.629 2.10559-1.445zm10.63886-5.389L66.9955 22h-2.00203l-3.41726-8.279h2.20914l2.2264 5.916 2.17462-5.916h2.10558zm2.11298 3.23h4.12488c-.03452-.969-.69036-1.836-2.07107-1.836-1.2599 0-1.98477.952-2.0538 1.836zm4.34924 2.159l1.69137.527c-.44873 1.445-1.77766 2.618-3.79695 2.618-2.27817 0-4.29746-1.632-4.29746-4.437 0-2.618 1.96751-4.352 4.09035-4.352 2.58883 0 4.10762 1.683 4.10762 4.301 0 .323-.03452.595-.05178.629h-6.14416c.05177 1.258 1.05279 2.159 2.29543 2.159 1.20812 0 1.82944-.629 2.10558-1.445zM81.97375 22h-2.00203V9.692h2.00203V22zm5.78912-1.513c1.24264 0 2.34721-.901 2.34721-2.635 0-1.717-1.10457-2.601-2.3472-2.601-1.22539 0-2.34721.884-2.34721 2.601s1.12182 2.635 2.3472 2.635zm0-7.021c2.5198 0 4.3665 1.853 4.3665 4.386 0 2.55-1.8467 4.403-4.3665 4.403-2.50254 0-4.34924-1.853-4.34924-4.403 0-2.533 1.8467-4.386 4.34924-4.386zm7.79114 11.764h-1.98477V13.721h1.933v1.122c.4142-.714 1.3807-1.309 2.67512-1.309 2.48528 0 3.88325 1.87 3.88325 4.318 0 2.482-1.53604 4.352-3.95229 4.352-1.20812 0-2.12284-.51-2.55431-1.139v4.165zm4.50457-7.378c0-1.547-.91472-2.567-2.26092-2.567-1.31167 0-2.2609 1.02-2.2609 2.567 0 1.581.94923 2.601 2.2609 2.601 1.32894 0 2.26092-1.02 2.26092-2.601zm10.92241 2.635c1.24264 0 2.34721-.901 2.34721-2.635 0-1.717-1.10456-2.601-2.3472-2.601-1.22539 0-2.34721.884-2.34721 2.601s1.12182 2.635 2.3472 2.635zm0-7.021c2.5198 0 4.3665 1.853 4.3665 4.386 0 2.55-1.8467 4.403-4.3665 4.403-2.50253 0-4.34923-1.853-4.34923-4.403 0-2.533 1.8467-4.386 4.34923-4.386zm7.80841 3.757V22h-2.00203v-8.279h1.95025v1.105c.55229-.952 1.5533-1.343 2.48528-1.343 2.05381 0 3.03757 1.462 3.03757 3.281V22h-2.00203v-4.896c0-1.02-.466-1.836-1.7259-1.836-1.13908 0-1.74314.867-1.74314 1.955zm12.75185-1.258c0 2.907 2.03655 4.352 4.09035 4.352 2.07107 0 4.10762-1.445 4.10762-4.352s-2.03655-4.352-4.10762-4.352c-2.0538 0-4.09035 1.445-4.09035 4.352zm-2.12284 0c0-3.944 3.00304-6.273 6.2132-6.273 3.21015 0 6.23045 2.329 6.23045 6.273 0 3.961-3.0203 6.29-6.23046 6.29-3.21015 0-6.2132-2.329-6.2132-6.29zm21.80537-2.244l-3.45178 3.502L151.29281 22h-2.45076l-2.46802-3.383-1.03553 1.071V22h-1.98477V9.692h1.98477v7.378l3.2274-3.349h2.65788zm3.56272-2.533v2.533h1.74314v1.751h-1.74314v3.842c0 .731.32792 1.037 1.07005 1.037.27614 0 .60406-.051.69035-.068v1.632c-.1208.051-.5005.187-1.22538.187-1.5533 0-2.5198-.918-2.5198-2.465v-4.165h-1.5533v-1.751h.43148c.89746 0 1.29441-.561 1.29441-1.292v-1.241h1.81219zm4.61552 5.763h4.12487c-.03451-.969-.69035-1.836-2.07106-1.836-1.2599 0-1.98477.952-2.05381 1.836zm4.34924 2.159l1.69137.527c-.44873 1.445-1.77767 2.618-3.79695 2.618-2.27818 0-4.29747-1.632-4.29747-4.437 0-2.618 1.96752-4.352 4.09036-4.352 2.58883 0 4.10761 1.683 4.10761 4.301 0 .323-.03451.595-.05177.629h-6.14417c.05178 1.258 1.0528 2.159 2.29543 2.159 1.20813 0 1.82945-.629 2.10559-1.445zm5.7546-7.922v2.533h1.74316v1.751h-1.74315v3.842c0 .731.32792 1.037 1.07005 1.037.27614 0 .60406-.051.69035-.068v1.632c-.1208.051-.5005.187-1.22538.187-1.5533 0-2.5198-.918-2.5198-2.465v-4.165h-1.5533v-1.751h.43148c.89746 0 1.29441-.561 1.29441-1.292v-1.241h1.81219zm6.91095 9.299c1.24264 0 2.34721-.901 2.34721-2.635 0-1.717-1.10457-2.601-2.3472-2.601-1.22539 0-2.34722.884-2.34722 2.601s1.12183 2.635 2.34721 2.635zm0-7.021c2.5198 0 4.3665 1.853 4.3665 4.386 0 2.55-1.8467 4.403-4.3665 4.403-2.50254 0-4.34924-1.853-4.34924-4.403 0-2.533 1.8467-4.386 4.34924-4.386z"/>
    <path fill="#232935" d="M20.63004 9.56522c3.65493-2.63445 8.78751-1.85883 11.58407 1.69096.53848.6835.42137 1.70314-.33411 2.15991-.75548.45677-1.72655.3201-2.25374-.34907-1.34629-1.7089-3.63721-2.40813-5.72392-1.73612-2.08533.67155-3.46458 2.56158-3.41874 4.68648.0459 2.12713 1.41252 4.00706 3.53029 4.65894 2.11556.65119 4.35631-.04788 5.62985-1.76983.56802-.76804 1.40641-.91314 2.20394-.46993.79753.4432.8671 1.56512.37402 2.25983-1.52665 2.0643-3.8999 3.29115-6.55408 3.3037-2.65266.01217-5.13925-1.15876-6.75116-3.20576-2.79654-3.5498-1.94136-8.59467 1.71358-11.22911zm10.8032 5.16137c.45919-.2179 1.0044-.17605 1.43031.10886.42521.28444.66779.76845.63625 1.27054-.03165.50379-.3345.94914-.79449 1.16742-.45919.21791-1.0044.17605-1.43032-.10886-.4252-.28444-.66778-.76845-.63624-1.27054.03165-.50379.3345-.94914.79449-1.16742z"/>
  </g>
</svg>